<?xml version="1.0" standalone="no"?>
<!DOCTYPE svg PUBLIC "-//W3C//DTD SVG 1.1//EN" "http://www.w3.org/Graphics/SVG/1.1/DTD/svg11.dtd" >
<svg xmlns="http://www.w3.org/2000/svg">
<metadata></metadata>
<defs>
<font id="sony_sketch_efregular" horiz-adv-x="1024" >
<font-face units-per-em="2048" ascent="1638" descent="-410" />
<missing-glyph horiz-adv-x="604" />
<glyph horiz-adv-x="2048" />
<glyph horiz-adv-x="2048" />
<glyph unicode="&#xd;" horiz-adv-x="2048" />
<glyph unicode="&#xa;" horiz-adv-x="1460" d="M218 413v52q265 100 413 333h76q-58 -167 -195 -309h522v721h101v-822h-623q137 -142 195 -309h-76q-148 234 -413 334z" />
<glyph unicode=" "  horiz-adv-x="604" />
<glyph unicode="&#x09;" horiz-adv-x="604" />
<glyph unicode="&#xa0;" horiz-adv-x="604" />
<glyph unicode="!" horiz-adv-x="503" d="M137 0v142h207v-142h-207zM137 214v785h201v-785h-201z" />
<glyph unicode="&#x22;" horiz-adv-x="575" d="M106 1026h139l-24 -207h-92zM329 1026h137l-22 -207h-92z" />
<glyph unicode="#" horiz-adv-x="1312" d="M73 303l27 116h221l39 182h-221l26 114h221l62 283h180l-61 -283h251l62 283h180l-61 -283h221l-27 -114h-221l-39 -182h219l-26 -116h-219l-66 -303h-180l67 303h-254l-65 -303h-180l65 303h-221zM503 419h252l39 182h-252z" />
<glyph unicode="$" horiz-adv-x="1040" d="M71 -1v144h410v288h-105q-131 0 -215 54q-90 54 -90 149v155q0 108 98 169q70 43 205 43h107v83h67v-83h406v-145h-406v-279h107q135 0 216 -54t81 -151v-161q0 -104 -83 -158t-227 -54h-94v-106h-67v106h-410zM268 681q0 -54 49 -81q39 -23 125 -23h39v279h-48 q-165 0 -165 -103v-72zM548 143h47q158 0 158 104v81q0 103 -166 103h-39v-288z" />
<glyph unicode="%" horiz-adv-x="1820" d="M59 534v322q0 147 223 147h191q223 0 223 -147v-320q0 -144 -223 -144h-191q-223 0 -223 142zM217 559q0 -36 21.5 -50t72.5 -14h133q51 0 72.5 14t21.5 50v274q0 37 -21.5 50.5t-72.5 13.5h-133q-51 0 -72.5 -13.5t-21.5 -50.5v-274zM411 0l781 1003h182l-780 -1003 h-183zM1087 143v324q0 144 223 144h191q221 0 221 -144v-322q0 -145 -221 -145h-191q-223 0 -223 143zM1245 168q0 -37 21.5 -49.5t72.5 -12.5h133q94 0 94 62v274q0 38 -21.5 51t-72.5 13h-133q-51 0 -72.5 -13t-21.5 -51v-274z" />
<glyph unicode="&#x26;" horiz-adv-x="1232" d="M69 211v93q0 67 53 127q43 46 178 92q-108 114 -114 123q-19 35 -19 152q0 92 78 147t205 55h176q119 0 196.5 -53t77.5 -139v-81q0 -94 -88 -152q-51 -35 -202 -89l280 -211q10 27 10 59v141h201v-185q0 -65 -55 -140l188 -150h-262l-63 52q-66 -35 -109 -43.5 t-127 -8.5h-276q-135 0 -228 55q-100 59 -100 156zM266 242q0 -48 53 -77q47 -24 115 -24h198q80 0 135 26l-333 256q-99 -34 -113 -42q-55 -31 -55 -79v-60zM362 734q0 -42 37 -80q8 -10 80 -65l129 46q98 34 98 97v39q0 93 -119 93h-106q-52 0 -85.5 -25.5t-33.5 -61.5 v-43z" />
<glyph unicode="'" horiz-adv-x="360" d="M106 1002h119l-21 -248h-78z" />
<glyph unicode="(" horiz-adv-x="563" d="M124 74v857q0 87 29.5 145t107.5 125h223q-88 -67 -120 -121q-39 -62 -39 -151v-855q0 -87 39 -150q32 -52 120 -124h-223q-78 74 -106 126q-31 59 -31 148z" />
<glyph unicode=")" horiz-adv-x="557" d="M63 -199q88 67 125 125.5t37 149.5v853q0 88 -39 151q-33 51 -123 121h223q80 -68 109.5 -124t29.5 -148v-855q0 -91 -29.5 -147.5t-109.5 -125.5h-223z" />
<glyph unicode="*" horiz-adv-x="804" d="M81 732l35 102l231 -84l-2 250h111l-4 -250l233 84l37 -102l-238 -78l148 -197l-86 -65l-148 203l-147 -201l-88 66l151 194z" />
<glyph unicode="+" d="M67 407v107h358v233h174v-233h357v-107h-359v-233h-174v233h-356z" />
<glyph unicode="," horiz-adv-x="329" d="M61 -219l61 140q-47 46 -47 80q0 36 23.5 62t58.5 26q33 0 56.5 -29t23.5 -64q0 -23 -12 -52l-72 -163h-92z" />
<glyph unicode="-" horiz-adv-x="548" d="M0 360v103h549v-103h-549z" />
<glyph unicode="." horiz-adv-x="342" d="M57 78q0 39 24.5 67.5t61.5 28.5t62.5 -27.5t25.5 -66.5t-24.5 -66.5t-61.5 -27.5t-62.5 27.5t-25.5 64.5z" />
<glyph unicode="/" horiz-adv-x="996" d="M57 0l697 1006h171l-699 -1006h-169z" />
<glyph unicode="0" horiz-adv-x="1198" d="M120 225v547q0 114 94 176q82 53 232 53h305q147 0 231 -53q94 -62 94 -176v-545q0 -227 -327 -227h-303q-326 0 -326 225zM319 267q0 -67 41 -94t135 -27h209q92 0 134 27t42 94v463q0 69 -41 97t-135 28h-209q-94 0 -135 -28t-41 -97v-463z" />
<glyph unicode="1" horiz-adv-x="823" d="M212 857v146h442v-999h-198v853h-244z" />
<glyph unicode="2" horiz-adv-x="1198" d="M155 0v345q0 99 82 157.5t217 58.5h211q178 0 178 105v85q0 106 -168 106h-518v144h569q146 0 230 -53q86 -60 86 -164v-84q-2 -56 -2 -84q0 -86 -86 -149q-74 -55 -250 -55q-27 0 -78 1h-74q-96 0 -141 -16q-57 -24 -57 -86v-166h686v-145h-885z" />
<glyph unicode="3" horiz-adv-x="1171" d="M131 0v146h528q121 0 150 54q10 23 10 136q0 96 -151 96h-244v142h244q151 0 151 99v84q0 61 -43 81q-33 15 -117 15h-528v146h573q152 0 228 -48q84 -52 84 -148v-134q0 -110 -148 -163q25 -11 70 -33q78 -46 78 -131v-137q0 -91 -84 -148q-53 -35 -105 -48 q-41 -9 -123 -9h-573z" />
<glyph unicode="4" horiz-adv-x="1181" d="M88 387q0 25 16 48l390 563h215l-394 -571h500v571h197v-998h-199l2 283h-547q-108 0 -153 44q-27 27 -27 60z" />
<glyph unicode="5" horiz-adv-x="1198" d="M151 0v147h516q170 0 170 101v123q0 51 -41 83.5t-108 32.5h-537v514h887v-147h-688v-219h383q139 0 220 -60.5t81 -164.5v-193q0 -100 -86 -158.5t-224 -58.5h-573z" />
<glyph unicode="6" horiz-adv-x="1198" d="M108 235v543q0 222 326 222h610v-146h-571q-166 0 -166 -106v-111h487q145 0 215 -54q80 -60 80 -164v-210q0 -95 -83 -152t-214 -57h-367q-147 0 -232 57.5t-85 177.5zM307 266q0 -120 168 -120h264q151 0 151 104v127q0 109 -166 109h-360q-57 0 -57 -38v-182z" />
<glyph unicode="7" horiz-adv-x="1198" d="M137 855v146h754q155 0 155 -94q0 -31 -16 -60l-481 -847h-211l485 855h-686z" />
<glyph unicode="8" horiz-adv-x="1220" d="M110 675v115q0 211 328 211h321q328 0 328 -211v-115q0 -105 -154 -166q152 -60 152 -167v-123q0 -219 -318 -219h-338q-317 0 -317 219v123q0 105 152 167q-154 58 -154 166zM309 250q0 -104 159 -104h260q160 0 160 104v92q0 46 -49 70t-115 24h-252q-65 0 -114 -24 t-49 -70v-92zM309 684q0 -101 159 -101h260q160 0 160 101v67q0 102 -168 102h-243q-168 0 -168 -102v-67z" />
<glyph unicode="9" horiz-adv-x="1220" d="M108 581v208q0 95 82 153t213 58h369q145 0 231 -57t86 -179v-543q0 -221 -326 -221h-610v145h571q166 0 166 106v113h-487q-145 0 -215 54q-80 58 -80 163zM307 623q0 -110 166 -110h360q57 0 57 38v182q0 123 -168 123h-264q-69 0 -110 -29t-41 -78v-126z" />
<glyph unicode=":" horiz-adv-x="357" d="M94 573q0 29 22 51t54 22q33 0 56 -20.5t23 -51.5t-22.5 -51.5t-54.5 -20.5q-34 0 -56 20.5t-22 50.5zM99 261q0 31 21.5 54t51.5 23q31 0 53 -21.5t22 -53.5t-22 -54t-52 -22q-31 0 -52.5 22t-21.5 52z" />
<glyph unicode=";" horiz-adv-x="344" d="M93 557q0 32 22.5 56t57.5 24q33 0 56.5 -23t23.5 -55t-23.5 -55t-56.5 -23q-34 0 -57 23t-23 53zM113 -37l49 126q-38 40 -38 72t19 55.5t47 23.5q27 0 46 -26t19 -58q0 -20 -10 -47l-58 -146h-74z" />
<glyph unicode="&#x3c;" d="M67 469v102l889 291v-121l-701 -221l701 -223v-119z" />
<glyph unicode="=" d="M77 261v111h889v-111h-889zM77 485v129h889v-129h-889z" />
<glyph unicode="&#x3e;" d="M67 178v121l700 225l-700 224v120l889 -293v-104z" />
<glyph unicode="?" horiz-adv-x="1048" d="M45 853v146h594q143 0 217 -60.5t74 -166.5v-184q0 -91 -92 -148q-58 -35 -158 -42h-172q-31 0 -31 -33v-150h-199v171q0 69 59.5 107.5t156.5 38.5q120 0 157 7q82 18 82 86v119q0 109 -149 109h-539zM278 -2v144h201v-144h-201z" />
<glyph unicode="@" horiz-adv-x="1499" d="M71 487q0 216 207 365t506 149q270 0 454 -121q193 -125 193 -318q0 -71 -31 -138q-37 -82 -110 -141q-89 -69 -195 -69q-59 0 -101 26t-51 71q-94 -105 -254 -105q-131 0 -212 74q-76 67 -76 165q0 115 98 204q104 95 260 95q158 0 221 -103l23 85h123l-80 -304 q-14 -56 -14 -65q0 -66 69 -66q68 0 125 56q43 43 67.5 101.5t24.5 113.5q0 160 -155 261q-150 95 -375 95q-252 0 -423 -125t-171 -308q0 -180 161.5 -301t440.5 -121q227 0 420 61l33 -81q-197 -63 -451 -63q-313 0 -520 140.5t-207 366.5zM542 447q0 -61 46 -105t130 -44 q105 0 168 74q53 64 53 144q0 56 -44 95.5t-122 39.5q-102 0 -166.5 -63.5t-64.5 -140.5z" />
<glyph unicode="A" horiz-adv-x="1196" d="M-4 0l444 909q45 90 158 90t158 -90l444 -909h-213l-119 245h-540l-119 -245h-213zM391 382h414l-217 445z" />
<glyph unicode="B" horiz-adv-x="1198" d="M108 0v1001h686q291 0 291 -227v-82q0 -74 -23 -110q-26 -47 -110 -82q22 -10 65 -29q54 -34 66 -114q4 -22 4 -128q0 -107 -72 -166q-78 -63 -221 -63h-686zM307 145h428q153 0 153 110v67q0 105 -153 105h-428v-282zM309 572h424q157 0 157 103v75q0 107 -164 107h-417 v-285z" />
<glyph unicode="C" horiz-adv-x="1118" d="M108 225v553q0 124 84 177q72 46 235 46h572v-146h-524q-86 0 -123 -23q-45 -31 -45 -86v-473q0 -71 40 -99t138 -28h512v-146h-586q-145 0 -224 59.5t-79 165.5z" />
<glyph unicode="D" horiz-adv-x="1206" d="M108 0v1001h690q299 0 299 -224v-548q0 -105 -76.5 -167t-218.5 -62h-694zM307 145h430q164 0 164 132v460q0 120 -164 120h-430v-712z" />
<glyph unicode="E" horiz-adv-x="1148" d="M108 212v563q0 104 80 163.5t221 59.5h586v-146h-516q-172 0 -172 -110v-171h649v-144h-649v-169q0 -112 174 -112h514v-146h-568q-147 0 -229 51q-90 57 -90 161z" />
<glyph unicode="F" horiz-adv-x="1136" d="M108 0v795q0 97 92 157q74 46 219 46h578v-146h-524q-166 0 -166 -103v-179h690v-144h-690v-426h-199z" />
<glyph unicode="G" horiz-adv-x="1193" d="M108 257v507q0 70 16 107q23 47 86 83q80 46 230 46h571v-144h-530q-94 0 -131 -23q-43 -26 -43 -92v-478q0 -67 47 -96q37 -22 123 -22h258q151 0 151 112v296h197v-311q0 -116 -76 -175q-82 -67 -221 -67h-346q-162 0 -246 57q-57 38 -76 92q-10 31 -10 108z" />
<glyph unicode="H" horiz-adv-x="1212" d="M108 0v1000h199v-429h598v429h198v-1000h-198v427h-598v-427h-199z" />
<glyph unicode="I" horiz-adv-x="415" d="M108 0v1003h199v-1003h-199z" />
<glyph unicode="J" horiz-adv-x="581" d="M20 0v146h115q67 4 103 30.5t36 112.5v712h199v-752q0 -69 -13 -101q-16 -46 -69 -86q-82 -62 -238 -62h-133z" />
<glyph unicode="K" horiz-adv-x="1054" d="M108 0v1000h199v-1000h-199zM313 505q0 26 59 82l438 413h238l-520 -493l534 -507h-235l-453 421q-61 55 -61 84z" />
<glyph unicode="L" horiz-adv-x="1009" d="M108 240v761h199v-726q0 -77 49 -107q37 -23 158 -23h483v-145h-529q-174 0 -267 53.5t-93 186.5z" />
<glyph unicode="M" horiz-adv-x="1585" d="M108 -5v871q0 57 45 94.5t125 37.5q121 0 166 -93l346 -709l352 710q47 94 164 94q82 0 126 -38.5t44 -98.5v-868h-190v787l-351 -701q-51 -103 -143 -103q-55 0 -90 30q-21 20 -45 67l-359 707v-787h-190z" />
<glyph unicode="N" horiz-adv-x="1202" d="M108 -2v856q0 146 162 146q74 0 112 -31q21 -17 62 -81l459 -704v807h190v-871q0 -57 -41 -94q-45 -42 -121 -42q-71 0 -110 32q-17 14 -60 81l-463 705v-804h-190z" />
<glyph unicode="O" horiz-adv-x="1177" d="M108 225v546q0 114 96 177q76 52 234 52h303q325 0 325 -229v-544q0 -227 -327 -227h-301q-158 0 -236 50q-94 60 -94 175zM307 267q0 -62 45 -95q37 -26 133 -26h209q92 0 134 26t42 91v466q0 70 -41 97.5t-135 27.5h-209q-96 0 -137 -27.5t-41 -97.5v-462z" />
<glyph unicode="P" horiz-adv-x="1189" d="M108 0v1003h676q131 0 213 -49q88 -54 90 -148q2 -101 2 -215q0 -100 -79 -157.5t-216 -57.5h-487v-376h-199zM307 525h419q164 0 164 113v119q0 101 -159 101h-424v-333z" />
<glyph unicode="Q" horiz-adv-x="1189" d="M108 220v554q0 124 96 181q80 46 234 46h309q154 0 233 -46q97 -57 97 -181v-554q0 -177 -203 -215l197 -153h-271l-194 146h-168q-156 0 -234 43q-96 60 -96 179zM307 259q0 -69 45 -93q39 -24 135 -24h209q94 0 138 23t44 88v482q0 69 -43 94t-139 25h-209 q-94 0 -137 -25t-43 -94v-476z" />
<glyph unicode="R" horiz-adv-x="1163" d="M108 0v999h668q305 0 305 -213v-173q0 -93 -79 -150t-208 -57h-229l518 -406h-248l-487 384q-25 19 -25 63q0 84 123 84l291 2q145 0 145 100v115q0 105 -164 105h-411v-853h-199z" />
<glyph unicode="S" horiz-adv-x="1087" d="M77 633v156q0 105 100 167q70 44 203 44h580v-146h-510q-125 0 -156 -46q-18 -28 -18 -127q0 -52 47 -81q39 -23 127 -23h211q135 0 216 -54t81 -152v-158q0 -103 -83 -158t-227 -55h-569v146h510q127 0 158 50q14 26 14 135q0 102 -166 102h-211q-131 0 -215 50 q-92 55 -92 150z" />
<glyph unicode="T" horiz-adv-x="901" d="M12 857v146h877v-146h-340v-857h-199v857h-338z" />
<glyph unicode="U" horiz-adv-x="1200" d="M108 252v748h199v-721q0 -78 41 -105.5t149 -27.5h205q106 0 148 26.5t42 102.5v725h199v-748q0 -68 -14 -104q-19 -49 -73 -89t-114 -52q-41 -7 -135 -7h-311q-90 0 -133 9q-64 12 -115 50q-57 43 -76 89q-12 32 -12 104z" />
<glyph unicode="V" horiz-adv-x="1155" d="M-18 1000h211l383 -810l387 810h209l-453 -923q-45 -91 -141 -91q-98 0 -143 91z" />
<glyph unicode="W" horiz-adv-x="1603" d="M22 999h195l241 -794l191 693q30 112 151 112q123 0 154 -112l190 -693l242 794h195l-275 -911q-33 -106 -156 -106q-127 0 -155 105l-197 707l-190 -707q-29 -105 -156 -105q-123 0 -156 106z" />
<glyph unicode="X" horiz-adv-x="1128" d="M0 0l455 508l-437 493h236l307 -352l313 352h236l-436 -491l454 -510h-233l-336 373l-323 -373h-236z" />
<glyph unicode="Y" horiz-adv-x="1077" d="M-18 1000h227l324 -434l336 434h227l-459 -593v-407h-198v407z" />
<glyph unicode="Z" horiz-adv-x="1028" d="M49 97q0 31 35 70l639 687h-651v146h761q144 0 144 -96q0 -34 -23 -58l-653 -700h651v-146h-710q-58 0 -98 7.5t-67.5 33.5t-27.5 56z" />
<glyph unicode="[" horiz-adv-x="550" d="M153 -194v1398h295v-110h-117v-1174h115v-114h-293z" />
<glyph unicode="\" horiz-adv-x="915" d="M8 1003h155l636 -1011h-155z" />
<glyph unicode="]" horiz-adv-x="550" d="M96 -83h115v1176h-115v111h293v-1400h-293v113z" />
<glyph unicode="^" horiz-adv-x="731" d="M43 733l231 244h152l231 -244h-122l-185 191l-184 -191h-123z" />
<glyph unicode="_" d="M4 2v115h1024v-115h-1024z" />
<glyph unicode="`" horiz-adv-x="636" d="M208 1200h121l98 -194h-108z" />
<glyph unicode="a" horiz-adv-x="1071" d="M108 182v133q0 91 69.5 140t190.5 49h420q-2 63 -25 90q-28 31 -110 31h-541v129h565q285 0 285 -191v-375q0 -84 -66.5 -136t-181.5 -52h-336q-120 0 -192 45q-78 49 -78 137zM284 215q0 -41 37 -62.5t90 -21.5h252q123 0 123 82v145q0 25 -41 25h-336q-125 0 -125 -94 v-74z" />
<glyph unicode="b" horiz-adv-x="1079" d="M108 205v794h176v-249h420q123 0 194.5 -54.5t71.5 -143.5v-351q0 -201 -268 -201h-309q-119 0 -202 49t-83 156zM284 225q0 -96 154 -96h213q80 0 116 30q27 18 27 73v286q0 105 -143 105h-324q-43 0 -43 -32v-366z" />
<glyph unicode="c" horiz-adv-x="858" d="M108 199v364q0 191 242 191h440v-129h-367q-77 0 -108 -20.5t-31 -76.5v-299q0 -100 148 -100h362v-129h-399q-287 0 -287 199z" />
<glyph unicode="d" horiz-adv-x="1079" d="M108 205v360q0 92 71.5 146.5t194.5 54.5h420v235h176v-790q0 -113 -83 -162t-201 -49h-310q-268 0 -268 205zM284 238q0 -56 27 -78q37 -29 116 -29h213q154 0 154 98v375q0 31 -43 31h-324q-143 0 -143 -107v-290z" />
<glyph unicode="e" horiz-adv-x="1038" d="M108 205v356q0 191 281 191h309q262 0 262 -203v-94l-674 -199v-25q0 -59 45 -86q31 -16 107 -16h520v-129h-553q-143 0 -211 43q-86 51 -86 162zM284 381l496 147v11q0 86 -140 86h-194q-162 0 -162 -97v-147z" />
<glyph unicode="f" horiz-adv-x="616" d="M108 0v821q0 83 77 132.5t193 49.5h131v-122h-92q-59 0 -96 -27.5t-37 -69.5v-34h225v-127h-224l-1 -623h-176z" />
<glyph unicode="g" horiz-adv-x="1075" d="M108 -162h537q94 0 125 39q20 30 20 104h-387q-145 0 -218 51.5t-73 143.5v365q0 110 63.5 163.5t211.5 53.5h292q150 0 218.5 -46t68.5 -156v-641q0 -211 -299 -211h-559v134zM286 216q0 -102 154 -102h313q39 0 39 30v368q0 58 -29 79q-45 36 -118 36h-220 q-139 0 -139 -107v-304z" />
<glyph unicode="h" horiz-adv-x="1067" d="M108 2v998h176v-251h393q281 0 281 -239v-506h-174v450q0 75 -31 105t-110 30h-316q-43 0 -43 -40v-547h-176z" />
<glyph unicode="i" horiz-adv-x="395" d="M81 0v752h176v-752h-176zM89 867v131h168v-131h-168z" />
<glyph unicode="j" horiz-adv-x="393" d="M-116 -164h91q59 0 96.5 26.5t37.5 70.5v817h176v-839q0 -99 -71.5 -153t-202.5 -54h-127v132zM117 871v131h168v-131h-168z" />
<glyph unicode="k" horiz-adv-x="929" d="M108 0v1003h176v-1003h-176zM294 383q0 26 35 58l354 309h211l-411 -367l434 -383h-217l-375 333q-31 26 -31 50z" />
<glyph unicode="l" horiz-adv-x="393" d="M108 0v1000h176v-1000h-176z" />
<glyph unicode="m" horiz-adv-x="1462" d="M108 4v498q0 246 256 246h160q78 0 123 -20.5t86 -76.5q73 97 211 97h157q117 0 184.5 -66t67.5 -180v-498h-176v459q0 94 -74 119q-28 8 -164 8q-59 0 -96 -39q-24 -25 -24 -92v-455h-174v455q0 96 -64 121q-33 10 -162 10q-137 0 -137 -127l2 -459h-176z" />
<glyph unicode="n" horiz-adv-x="1013" d="M65 2v522q0 230 268 230h310q266 0 266 -230v-522h-174v477q0 115 -148 115h-196q-150 0 -150 -115v-477h-176z" />
<glyph unicode="o" horiz-adv-x="1056" d="M86 186v375q0 98 88 152q64 39 191 39h305q127 0 186 -39q84 -51 84 -152v-375q0 -96 -86 -147q-61 -39 -184 -39h-305q-140 0 -209.5 50t-69.5 136zM262 223q0 -49 43 -73q33 -21 94 -21h234q59 0 90 21q41 24 41 71v305q0 52 -41 76q-33 23 -102 23h-209 q-72 0 -107 -23q-43 -24 -43 -76v-303z" />
<glyph unicode="p" horiz-adv-x="1071" d="M108 -298v853q0 201 260 201h315q277 0 277 -197v-371q0 -82 -72.5 -134t-185.5 -52h-418v-300h-176zM284 162q0 -33 47 -33h324q131 0 131 98v308q0 92 -141 92h-215q-146 0 -146 -103v-362z" />
<glyph unicode="q" horiz-adv-x="1071" d="M108 184v369q0 195 276 195h318q258 0 258 -199v-849l-173 -1l-1 301h-420q-113 0 -185.5 51t-72.5 133zM284 223q0 -96 131 -96h324q47 0 47 31v360q0 103 -146 103h-217q-139 0 -139 -93v-305z" />
<glyph unicode="r" horiz-adv-x="624" d="M59 4v555q0 203 285 203h204v-129q-204 0 -237 -8q-70 -21 -70 -101v-520h-182z" />
<glyph unicode="s" horiz-adv-x="956" d="M77 0v129h479q74 0 99 29q18 22 18 80q0 77 -115 77h-217q-110 0 -182 43q-80 48 -80 125v101q0 84 92 135q56 33 172 33h512v-129h-465q-63 0 -94 -15q-43 -20 -43 -55v-31q0 -78 141 -78h230q100 0 164.5 -49t64.5 -125v-92q0 -72 -65 -127q-39 -35 -82 -43 q-35 -8 -103 -8h-526z" />
<glyph unicode="t" horiz-adv-x="602" d="M108 0v1003h176v-262h223v-126h-223v-615h-176z" />
<glyph unicode="u" horiz-adv-x="1071" d="M108 238v514h176v-467q0 -58 39 -95q31 -28 119 -28h188q156 0 156 119v471h176v-514q0 -238 -276 -238h-302q-276 0 -276 238z" />
<glyph unicode="v" horiz-adv-x="1007" d="M-12 762h182l332 -598l336 598h180l-395 -711q-35 -63 -119 -63t-119 63z" />
<glyph unicode="w" horiz-adv-x="1374" d="M28 764h172l197 -600l163 508q31 98 127 98q97 0 127 -98l162 -508l197 600h172l-219 -672q-35 -106 -146 -106q-106 0 -139 100l-158 492l-151 -492q-31 -100 -144 -100q-108 0 -143 106z" />
<glyph unicode="x" horiz-adv-x="935" d="M8 0l362 387l-339 367h206l228 -242l231 242h207l-336 -367l361 -387h-211l-250 262l-250 -262h-209z" />
<glyph unicode="y" horiz-adv-x="1067" d="M110 246l1 506h175v-461q0 -128 137 -128h316q45 0 45 49v538h176v-828q0 -112 -69.5 -183t-190.5 -71h-553v167h504q88 0 116 47q17 31 17 120v21l-76 -21h-324q-124 0 -194 62q-80 70 -80 182z" />
<glyph unicode="z" horiz-adv-x="1003" d="M49 94q0 35 49 74l604 461h-633v129h719q160 0 160 -94q0 -41 -37 -68l-620 -465h632v-131h-716q-64 0 -111 24.5t-47 69.5z" />
<glyph unicode="{" horiz-adv-x="571" d="M40 448v107q117 21 117 133v299q0 115 70.5 164.5t222.5 49.5q53 0 79 -2v-117q-114 0 -151 -19q-47 -27 -47 -110v-273q0 -74 -21 -107q-26 -44 -104 -76q74 -32 100 -77q25 -38 25 -107v-266q0 -95 53 -116q37 -15 145 -15v-120h-83q-154 0 -221.5 53.5t-67.5 172.5 v285q0 121 -117 141z" />
<glyph unicode="|" d="M423 -98v1198h176v-1198h-176z" />
<glyph unicode="}" horiz-adv-x="571" d="M40 -79q106 0 145 16q54 21 54 113v267q0 68 22 106q27 45 103 77q-74 31 -101 74q-24 38 -24 109v272q0 85 -47 109q-35 19 -152 19v116q27 2 80 2q151 0 223 -49t72 -165v-296q0 -119 114 -143v-105q-114 -22 -114 -133v-284q0 -130 -80 -179q-72 -46 -248 -46h-22 q-17 2 -25 2v118z" />
<glyph unicode="~" horiz-adv-x="1366" d="M90 332q82 106 131 141q84 59 209 59q96 0 271 -59t245 -59q76 0 129 35q33 20 88 81l117 -51q-60 -73 -103 -108q-106 -82 -268 -82q-80 0 -254 57t-239 57q-74 0 -129 -38q-33 -25 -84 -86z" />
<glyph unicode="&#xa2;" horiz-adv-x="892" d="M304 276v507q0 266 242 266h147v152h64v-152h229v-181h-229v-689h233v-177h-233v-161l-64 44v117h-102q-287 0 -287 274zM480 318q0 -139 146 -139h67v689h-74q-77 0 -108 -27.5t-31 -106.5v-416zM693 -114h63v-45h-63v45z" />
<glyph unicode="&#xa3;" horiz-adv-x="1228" d="M45 0v156q117 18 164 59q57 53 57 121v129h-221v158h223v211q0 241 289 241h152q153 0 229 -69q70 -64 70 -158v-88h-201v47q0 47 -35 79t-94 32h-78q-129 0 -129 -105v-190h410l2 -158h-414q-2 -150 -6 -166q-17 -84 -96 -143h469q65 0 113 33.5t48 84.5v50h203v-80 q0 -111 -99.5 -177.5t-238.5 -66.5h-817z" />
<glyph unicode="&#xa5;" horiz-adv-x="1120" d="M4 1075h227l324 -465l334 465h227l-330 -473h316v-98h-387l-56 -68v-39h441v-98h-441v-299h-198v301h-434v96h434v39l-47 70h-385v96h315z" />
<glyph unicode="&#xa8;" d="M239 1227q0 41 26.5 68.5t65.5 27.5t66.5 -27.5t27.5 -66.5t-27.5 -66.5t-66.5 -27.5q-37 0 -64.5 27.5t-27.5 64.5zM522 1225q0 41 26.5 69.5t67.5 28.5q39 0 67.5 -28.5t28.5 -67.5t-28.5 -68t-67.5 -29t-66.5 28t-27.5 67z" />
<glyph unicode="&#xa9;" horiz-adv-x="1049" d="M109 766q0 148 120 252.5t290 104.5t290 -104.5t120 -252.5q0 -149 -120 -254t-290 -105t-290 105t-120 254zM175 765q0 -125 100.5 -213t243.5 -88t244.5 88.5t101.5 212.5q0 125 -101.5 213t-244.5 88q-142 0 -243 -88.5t-101 -212.5zM323 766q0 92 55.5 149.5 t151.5 57.5q70 0 128 -33l-25 -45q-57 24 -103 24q-64 0 -99 -41t-35 -112q0 -70 35 -112t99 -42q59 0 110 34l25 -43q-57 -43 -135 -43q-93 0 -150 58.5t-57 147.5z" />
<glyph unicode="&#xab;" horiz-adv-x="909" d="M59 352q0 25 45 60l260 204h160l-334 -262l336 -264h-166l-254 203q-47 37 -47 59zM383 352q0 25 45 60l260 204h159l-333 -262l336 -264h-168l-254 203q-45 37 -45 59z" />
<glyph unicode="&#xad;" horiz-adv-x="548" d="M0 360v103h549v-103h-549z" />
<glyph unicode="&#xae;" horiz-adv-x="1030" d="M97 761q0 148 120 253t290 105t290 -105t120 -253q0 -149 -120 -254.5t-290 -105.5t-290 105.5t-120 254.5zM163 760q0 -125 100.5 -213.5t243.5 -88.5t244.5 89t101.5 213q0 125 -101.5 213.5t-244.5 88.5q-142 0 -243 -89t-101 -213zM370 561v401h128q70 0 108 -28.5 t38 -80.5q0 -76 -94 -103l139 -189h-81l-128 176h-41v-176h-69zM439 785h48q36 0 61 20t25 47q0 28 -22 44.5t-62 16.5h-50v-128z" />
<glyph unicode="&#xb4;" horiz-adv-x="669" d="M225 1116l102 215h129l-116 -215h-115z" />
<glyph unicode="&#xb8;" horiz-adv-x="929" d="M307 -253l20 43q68 -25 113 -25q84 0 84 59q0 56 -72 56q-22 0 -61 -15l-25 25l80 110h56l-60 -83q29 6 51 6q50 0 83.5 -24.5t33.5 -70.5q0 -53 -53 -86q-45 -28 -105 -28q-61 0 -145 33z" />
<glyph unicode="&#xbb;" horiz-adv-x="909" d="M59 612h168l254 -200q45 -37 45 -60q0 -24 -45 -59l-260 -203h-160l334 260zM383 612h165l256 -200q46 -35 46 -60q0 -24 -46 -59l-260 -203h-159l333 260z" />
<glyph unicode="&#x2c6;" horiz-adv-x="921" d="M270 1071l125 225h174l135 -225l-121 -2l-102 172l-92 -170h-119z" />
<glyph unicode="&#x2da;" horiz-adv-x="1229" d="M424 1346q0 77 56 133.5t134 56.5t134.5 -56.5t56.5 -133.5q0 -78 -56.5 -134.5t-134.5 -56.5t-134 56.5t-56 134.5zM502 1346q0 -47 33 -80t79 -33t79.5 33.5t33.5 79.5q0 45 -33.5 78.5t-79.5 33.5q-45 0 -78.5 -33.5t-33.5 -78.5z" />
<glyph unicode="&#x2dc;" d="M184 1063v106q27 7 78 21q108 33 127 33q39 0 123 -27t121 -27q24 0 114 27q27 10 92 25v-109l-65 -16q-8 -2 -66 -25q-37 -12 -69 -12q-43 0 -126 27.5t-128 27.5q-41 0 -201 -51z" />
<glyph unicode="&#x401;" horiz-adv-x="1098" d="M108 212v563q0 104 80 163.5t221 59.5h586v-146h-516q-172 0 -172 -110v-171h649v-144h-649v-169q0 -112 174 -112h514v-146h-568q-147 0 -229 51q-90 57 -90 161zM294 1164q0 32 22.5 53.5t54.5 21.5q33 0 54 -21.5t21 -53.5q0 -31 -22 -53t-53 -22t-54 22.5t-23 52.5z M627 1162q0 33 23.5 55t59.5 22q34 0 57 -22t23 -55q0 -31 -23.5 -53.5t-56.5 -22.5q-35 0 -59 22.5t-24 53.5z" />
<glyph unicode="&#x402;" horiz-adv-x="1466" d="M41 896v104h872v-104h-350v-336q75 51 187 89t206 38q160 0 259.5 -64.5t99.5 -172.5v-365q0 -141 -93 -208t-257 -67q-67 0 -134 19l52 93q57 -9 92 -9q81 0 118 39.5t37 124.5v346q0 74 -56 117t-150 43q-85 0 -183.5 -34.5t-177.5 -86.5v-401h-184v835h-338z" />
<glyph unicode="&#x403;" horiz-adv-x="920" d="M170 0v1014h709v-128h-525v-886h-184zM324 1078l198 165h226l-312 -165h-112z" />
<glyph unicode="&#x404;" horiz-adv-x="1223" d="M111 486q0 231 173 372.5t464 141.5q103 0 210.5 -22.5t171.5 -56.5l-67 -93q-149 60 -315 60q-192 0 -307 -89.5t-134 -256.5h481v-109h-481q19 -168 136 -259.5t305 -91.5q186 0 344 78l61 -87q-172 -100 -405 -100q-285 0 -461 145t-176 368z" />
<glyph unicode="&#x405;" horiz-adv-x="1001" d="M86 633v156q0 105 100 167q70 44 203 44h580v-146h-510q-125 0 -156 -46q-18 -28 -18 -127q0 -52 47 -81q39 -23 127 -23h211q135 0 216 -54t81 -152v-158q0 -103 -83 -158t-227 -55h-569v146h510q127 0 158 50q14 26 14 135q0 102 -166 102h-211q-131 0 -215 50 q-92 55 -92 150z" />
<glyph unicode="&#x406;" horiz-adv-x="537" d="M176 0v1003h199v-1003h-199z" />
<glyph unicode="&#x407;" horiz-adv-x="537" d="M21 924q0 33 24 54.5t57 21.5q34 0 56.5 -21.5t22.5 -54.5q0 -31 -23 -53.5t-56 -22.5t-57 23t-24 53zM176 0v750h184v-750h-184zM362 931q0 36 24 59.5t60 23.5q35 0 58 -23.5t23 -59.5q0 -34 -24 -58.5t-57 -24.5q-35 0 -59.5 24.5t-24.5 58.5z" />
<glyph unicode="&#x408;" horiz-adv-x="537" d="M-123 0v146h115q67 4 103 30.5t36 112.5v712h199v-752q0 -69 -13 -101q-16 -46 -69 -86q-82 -62 -238 -62h-133z" />
<glyph unicode="&#x409;" horiz-adv-x="1876" d="M14 -18v112h11q81 0 118 38.5t37 121.5v750h918v-406h178q222 0 365 -81.5t143 -216.5q0 -138 -134 -221.5t-345 -83.5h-392v897h-548v-650q0 -260 -312 -260h-39zM1098 106h166q146 0 236.5 52t90.5 140q0 89 -87.5 139t-235.5 50h-170v-381z" />
<glyph unicode="&#x40a;" horiz-adv-x="1876" d="M170 0v1007h184v-405h559v405h185v-405h178q222 0 365 -81t143 -217q0 -138 -134 -221t-345 -83h-392v491h-559v-491h-184zM1098 111h166q146 0 236.5 52t90.5 140t-87.5 138t-235.5 50h-170v-380z" />
<glyph unicode="&#x40b;" horiz-adv-x="1466" d="M41 889v111h872v-111h-350v-357q75 53 187 93.5t206 40.5q160 0 259.5 -68.5t99.5 -183.5v-414h-185v385q0 79 -56 125t-150 46q-176 0 -361 -129v-427h-184v889h-338z" />
<glyph unicode="&#x40c;" horiz-adv-x="1094" d="M108 0v1000h199v-1000h-199zM313 505q0 26 59 82l438 413h238l-520 -493l534 -507h-235l-453 421q-61 55 -61 84zM330 1075l198 171h226l-312 -171h-112z" />
<glyph unicode="&#x40e;" horiz-adv-x="1122" d="M-18 1000h227l324 -434l336 434h227l-459 -593v-407h-198v407zM233 1235h122q44 -87 175 -87q71 0 110 20.5t61 66.5h125q-41 -173 -296 -173q-251 0 -297 173z" />
<glyph unicode="&#x40f;" horiz-adv-x="1366" d="M170 -5v1009h184v-898h658v898h184v-1009h-420v-192h-182v192h-424z" />
<glyph unicode="&#x410;" horiz-adv-x="1224" d="M16 0l444 909q45 90 158 90t158 -90l444 -909h-213l-119 245h-540l-119 -245h-213zM411 382h414l-217 445z" />
<glyph unicode="&#x411;" horiz-adv-x="1077" d="M105 0v1000h709v-111h-525v-291h178q223 0 365.5 -80.5t142.5 -215.5q0 -137 -134 -219.5t-345 -82.5h-391zM289 111h166q147 0 237.5 51t90.5 138q0 88 -88 138t-236 50h-170v-377z" />
<glyph unicode="&#x412;" horiz-adv-x="1183" d="M105 0v1001h686q291 0 291 -227v-82q0 -74 -23 -110q-26 -47 -110 -82q22 -10 65 -29q54 -34 66 -114q4 -22 4 -128q0 -107 -72 -166q-78 -63 -221 -63h-686zM304 145h428q153 0 153 110v67q0 105 -153 105h-428v-282zM306 572h424q157 0 157 103v75q0 107 -164 107h-417 v-285z" />
<glyph unicode="&#x413;" horiz-adv-x="920" d="M170 0v1000h709v-111h-525v-889h-184z" />
<glyph unicode="&#x414;" horiz-adv-x="1456" d="M2 -104v279h133q167 94 260.5 273t93.5 421v131h709v-825h193v-279h-185v176h-1020v-176h-184zM377 175h637v722h-342v-18q0 -244 -82 -430t-213 -274z" />
<glyph unicode="&#x415;" horiz-adv-x="1084" d="M105 212v563q0 104 80 163.5t221 59.5h586v-146h-516q-172 0 -172 -110v-171h649v-144h-649v-169q0 -112 174 -112h514v-146h-568q-147 0 -229 51q-90 57 -90 161z" />
<glyph unicode="&#x416;" horiz-adv-x="1675" d="M2 0l555 516q-65 17 -116.5 53t-137.5 169q-67 103 -106.5 129.5t-81.5 26.5h-11v110h17q89 0 148 -27.5t95 -68t82 -110.5q80 -123 138 -163t161 -40v406h185v-406q104 0 161.5 40t137.5 163q47 70 82.5 110.5t94.5 68t148 27.5h17v-110h-10q-43 0 -82.5 -26.5 t-106.5 -129.5q-85 -133 -136.5 -169t-117.5 -53l555 -516h-219l-498 474h-26v-474h-185v474h-26l-498 -474h-219z" />
<glyph unicode="&#x417;" horiz-adv-x="1055" d="M35 73l61 86q176 -77 344 -77q139 0 230.5 52.5t91.5 142.5q0 79 -104.5 131t-262.5 52h-37v105h7q149 0 255.5 49.5t106.5 129.5q0 65 -78 104.5t-200 39.5q-169 0 -324 -59l-66 93q169 78 398 78q195 0 326.5 -72.5t131.5 -181.5q0 -75 -80 -141t-186 -83v-4 q132 -23 216.5 -87.5t84.5 -146.5q0 -141 -147.5 -226t-368.5 -85q-222 0 -399 100z" />
<glyph unicode="&#x418;" horiz-adv-x="1204" d="M108 120v871h190v-807l459 704q41 64 62 81q38 31 112 31q162 0 162 -146v-856h-190v804l-463 -705q-43 -67 -60 -81q-39 -32 -110 -32q-76 0 -121 42q-41 37 -41 94z" />
<glyph unicode="&#x419;" horiz-adv-x="1207" d="M108 120v871h190v-807l459 704q41 64 62 81q38 31 112 31q162 0 162 -146v-856h-190v804l-463 -705q-43 -67 -60 -81q-39 -32 -110 -32q-76 0 -121 42q-41 37 -41 94zM315 1242h113q41 -99 162 -99q67 0 103 23.5t57 75.5h115q-37 -197 -275 -197q-232 0 -275 197z" />
<glyph unicode="&#x41a;" horiz-adv-x="1074" d="M94 0v1000h199v-1000h-199zM299 505q0 26 59 82l438 413h238l-520 -493l534 -507h-235l-453 421q-61 55 -61 84z" />
<glyph unicode="&#x41b;" horiz-adv-x="1207" d="M14 -18v112h11q81 0 118 38t37 120v745h918v-1002h-185v891h-548v-645q0 -259 -312 -259h-39z" />
<glyph unicode="&#x41c;" horiz-adv-x="1573" d="M105 -5v871q0 57 45 94.5t125 37.5q121 0 166 -93l346 -709l352 710q47 94 164 94q82 0 126 -38.5t44 -98.5v-868h-190v787l-351 -701q-51 -103 -143 -103q-55 0 -90 30q-21 20 -45 67l-359 707v-787h-190z" />
<glyph unicode="&#x41d;" horiz-adv-x="1204" d="M105 0v1000h199v-429h598v429h198v-1000h-198v427h-598v-427h-199z" />
<glyph unicode="&#x41e;" horiz-adv-x="1180" d="M111 225v546q0 114 96 177q76 52 234 52h303q325 0 325 -229v-544q0 -227 -327 -227h-301q-158 0 -236 50q-94 60 -94 175zM310 267q0 -62 45 -95q37 -26 133 -26h209q92 0 134 26t42 91v466q0 70 -41 97.5t-135 27.5h-209q-96 0 -137 -27.5t-41 -97.5v-462z" />
<glyph unicode="&#x41f;" horiz-adv-x="1231" d="M105 0v1000h1026v-1000h-184v889h-658v-889h-184z" />
<glyph unicode="&#x420;" horiz-adv-x="1200" d="M115 0v1003h676q131 0 213 -49q88 -54 90 -148q2 -101 2 -215q0 -100 -79 -157.5t-216 -57.5h-487v-376h-199zM314 525h419q164 0 164 113v119q0 101 -159 101h-424v-333z" />
<glyph unicode="&#x421;" horiz-adv-x="1104" d="M111 225v553q0 124 84 177q72 46 235 46h572v-146h-524q-86 0 -123 -23q-45 -31 -45 -86v-473q0 -71 40 -99t138 -28h512v-146h-586q-145 0 -224 59.5t-79 165.5z" />
<glyph unicode="&#x422;" horiz-adv-x="927" d="M23 857v146h877v-146h-340v-857h-199v857h-338z" />
<glyph unicode="&#x423;" horiz-adv-x="1108" d="M-18 1000h227l324 -434l336 434h227l-459 -593v-407h-198v407z" />
<glyph unicode="&#x424;" horiz-adv-x="1417" d="M63 500q0 159 144.5 257t410.5 114v129h185v-129q264 -18 405.5 -115.5t141.5 -255.5q0 -159 -141.5 -256t-405.5 -115v-129h-185v129q-267 16 -411 113t-144 258zM256 500q0 -113 92.5 -181.5t269.5 -83.5v528q-176 -13 -269 -82t-93 -181zM803 237q171 16 262.5 84.5 t91.5 178.5q0 107 -92 176.5t-262 86.5v-526z" />
<glyph unicode="&#x425;" horiz-adv-x="1173" d="M16 0l455 508l-437 493h236l307 -352l313 352h236l-436 -491l454 -510h-233l-336 373l-323 -373h-236z" />
<glyph unicode="&#x426;" horiz-adv-x="1347" d="M105 -11v1011h184v-899h658v899h184v-899h131v-304h-184v192h-973z" />
<glyph unicode="&#x427;" horiz-adv-x="1139" d="M101 588v416h184v-386q0 -172 194 -172q214 0 373 131v427h184v-1004h-184v471q-196 -136 -393 -136q-170 0 -264 65t-94 188z" />
<glyph unicode="&#x428;" horiz-adv-x="1792" d="M108 3v1000h184v-889h514v889h185v-889h514v889h182v-1000h-1579z" />
<glyph unicode="&#x429;" horiz-adv-x="1898" d="M105 -1v994h184v-884h514v884h185v-884h514v884h182v-884h131v-299h-184v189h-1526z" />
<glyph unicode="&#x42a;" horiz-adv-x="1341" d="M41 887v110h522v-401h178q223 0 365.5 -80.5t142.5 -214.5q0 -136 -134 -218.5t-345 -82.5h-391v887h-338zM563 110h166q147 0 237.5 51.5t90.5 138.5t-88 136.5t-236 49.5h-170v-376z" />
<glyph unicode="&#x42b;" horiz-adv-x="1412" d="M105 0v1000h184v-402h178q223 0 365.5 -80.5t142.5 -215.5q0 -137 -134 -219.5t-345 -82.5h-391zM289 111h166q147 0 237.5 51t90.5 138q0 88 -88 138t-236 50h-170v-377zM1104 0v1003h199v-1003h-199z" />
<glyph unicode="&#x42c;" horiz-adv-x="1081" d="M105 0v1004h184v-403h178q223 0 365.5 -81.5t142.5 -216.5q0 -137 -134 -220t-345 -83h-391zM289 111h166q147 0 237.5 51.5t90.5 139.5t-88 138t-236 50h-170v-379z" />
<glyph unicode="&#x42d;" horiz-adv-x="1081" d="M95 0v146h514q174 0 174 112v169h-649v144h649v171q0 110 -172 110h-516v146h586q141 0 221 -59.5t80 -163.5v-563q0 -104 -90 -161q-82 -51 -229 -51h-568z" />
<glyph unicode="&#x42e;" horiz-adv-x="1717" d="M105 -5v996h172v-440h169q23 215 183 337t409 122q271 0 432.5 -142t161.5 -375q0 -221 -161 -369t-433 -148q-245 0 -407.5 126t-186.5 340h-167v-447h-172zM624 493q0 -188 110.5 -297.5t303.5 -109.5q197 0 305 107t108 300q0 181 -110.5 294t-302.5 113 q-190 0 -302 -111.5t-112 -295.5z" />
<glyph unicode="&#x42f;" horiz-adv-x="1180" d="M105 4l518 406h-229q-129 0 -208 57t-79 150v173q0 213 305 213h668v-999h-199v853h-411q-164 0 -164 -105v-115q0 -100 145 -100l291 -2q123 0 123 -84q0 -44 -25 -63l-487 -384h-248z" />
<glyph unicode="&#x430;" horiz-adv-x="1053" d="M100 182v133q0 91 69.5 140t190.5 49h420q-2 63 -25 90q-28 31 -110 31h-541v129h565q285 0 285 -191v-375q0 -84 -66.5 -136t-181.5 -52h-336q-120 0 -192 45q-78 49 -78 137zM276 215q0 -41 37 -62.5t90 -21.5h252q123 0 123 82v145q0 25 -41 25h-336q-125 0 -125 -94 v-74z" />
<glyph unicode="&#x431;" horiz-adv-x="1161" d="M102 425q0 262 125.5 417t356.5 155q71 0 154 -7q70 -5 120 -5q77 0 117 11v-105q-62 -10 -117 -10q-65 0 -152 6q-74 4 -120 4q-241 0 -299 -254q43 50 127 79.5t186 29.5q198 0 328.5 -101.5t130.5 -269.5q0 -172 -131 -271t-346 -99q-229 0 -354.5 108t-125.5 312z M287 387q0 -119 78 -198.5t217 -79.5t215.5 75t76.5 191q0 120 -78 193.5t-218 73.5t-215.5 -69.5t-75.5 -185.5z" />
<glyph unicode="&#x432;" horiz-adv-x="1042" d="M158 0v747h381q163 0 263.5 -54t100.5 -144q0 -52 -45.5 -95t-109.5 -58q88 -13 149 -61.5t61 -102.5q0 -111 -107 -171.5t-249 -60.5h-444zM332 110h241q87 0 144 33t57 86q0 55 -62 81t-163 26h-217v-226zM332 447h211q178 0 178 98q0 44 -50.5 68t-133.5 24h-205v-190 z" />
<glyph unicode="&#x433;" horiz-adv-x="754" d="M147 0v744h566v-109h-391v-635h-175z" />
<glyph unicode="&#x434;" horiz-adv-x="1114" d="M4 -116v249h102q110 65 179 192t69 294v132h574v-618h135v-249h-174v142h-711v-142h-174zM326 133h428v511h-226v-13q0 -163 -56.5 -294t-145.5 -204z" />
<glyph unicode="&#x435;" horiz-adv-x="1042" d="M102 205v356q0 191 281 191h309q262 0 262 -203v-94l-674 -199v-25q0 -59 45 -86q31 -16 107 -16h520v-129h-553q-143 0 -211 43q-86 51 -86 162zM278 381l496 147v11q0 86 -140 86h-194q-162 0 -162 -97v-147z" />
<glyph unicode="&#x436;" horiz-adv-x="1417" d="M23 0l423 374q-100 28 -178 159q-36 60 -67.5 83.5t-87.5 23.5h-50v107h68q91 0 145 -25t123 -142q44 -73 91.5 -107t132.5 -34v308h174v-308q84 0 132 34t91 107q69 117 123 142t145 25h68v-107h-49q-57 0 -88.5 -23.5t-67.5 -83.5q-77 -131 -178 -159l424 -374h-199 l-379 353h-22v-353h-174v353h-23l-379 -353h-198z" />
<glyph unicode="&#x437;" horiz-adv-x="915" d="M70 74l61 89q142 -54 272 -54q103 0 173.5 34.5t70.5 88.5q0 53 -68 84.5t-194 31.5h-76v96h68q119 0 187.5 31t68.5 84q0 37 -55 62.5t-140 25.5q-148 0 -262 -34l-63 90q140 44 319 44q171 0 275 -53t104 -135q0 -50 -59.5 -95.5t-151.5 -59.5v-2q95 -9 163 -57.5 t68 -109.5q0 -98 -123 -163t-307 -65q-162 0 -331 67z" />
<glyph unicode="&#x438;" horiz-adv-x="1190" d="M107 94v646h190v-607l463 533q43 50 60 61q39 24 110 24q76 0 121 -32q41 -28 41 -71v-657h-190v609l-459 -531q-41 -49 -62 -62q-38 -23 -112 -23q-162 0 -162 110z" />
<glyph unicode="&#x439;" horiz-adv-x="1190" d="M108 91v648h190v-609l463 534q43 51 60 62q39 24 110 24q76 0 121 -32q41 -28 41 -71v-660h-190v611l-459 -533q-41 -49 -62 -62q-38 -23 -112 -23q-162 0 -162 111zM311 993h112q39 -82 160 -82q66 0 101.5 19t56.5 63h114q-38 -164 -272 -164q-230 0 -272 164z" />
<glyph unicode="&#x43a;" horiz-adv-x="916" d="M101 3v754h163v-754h-163zM269 384q0 19 48 62l359 311h195l-426 -372l437 -382h-192l-371 317q-50 42 -50 64z" />
<glyph unicode="&#x43b;" horiz-adv-x="1128" d="M35 -18v114h10q90 0 123 21.5t33 100.5v533h821v-756h-174v645h-473v-434q0 -120 -65 -172t-236 -52h-39z" />
<glyph unicode="&#x43c;" horiz-adv-x="1395" d="M104 -6v661q0 44 39 72t109 28q105 0 145 -70l301 -538l306 539q41 71 143 71q71 0 109.5 -29t38.5 -75v-659h-165v597l-306 -532q-44 -78 -124 -78q-48 0 -79 23q-18 15 -39 51l-313 536v-597h-165z" />
<glyph unicode="&#x43d;" horiz-adv-x="1200" d="M101 -3v751h199v-322h598v322h198v-751h-198v321h-598v-321h-199z" />
<glyph unicode="&#x43e;" horiz-adv-x="1043" d="M102 186v375q0 98 88 152q64 39 191 39h305q127 0 186 -39q84 -51 84 -152v-375q0 -96 -86 -147q-61 -39 -184 -39h-305q-140 0 -209.5 50t-69.5 136zM278 223q0 -49 43 -73q33 -21 94 -21h234q59 0 90 21q41 24 41 71v305q0 52 -41 76q-33 23 -102 23h-209 q-72 0 -107 -23q-43 -24 -43 -76v-303z" />
<glyph unicode="&#x43f;" horiz-adv-x="1074" d="M103 3v754h860v-754h-174v643h-512v-643h-174z" />
<glyph unicode="&#x440;" horiz-adv-x="1063" d="M107 -298v853q0 201 260 201h315q277 0 277 -197v-371q0 -82 -72.5 -134t-185.5 -52h-418v-300h-176zM283 162q0 -33 47 -33h324q131 0 131 98v308q0 92 -141 92h-215q-146 0 -146 -103v-362z" />
<glyph unicode="&#x441;" horiz-adv-x="882" d="M102 199v364q0 191 242 191h440v-129h-367q-77 0 -108 -20.5t-31 -76.5v-299q0 -100 148 -100h362v-129h-399q-287 0 -287 199z" />
<glyph unicode="&#x442;" horiz-adv-x="918" d="M41 641v110h836v-110h-330v-641h-174v641h-332z" />
<glyph unicode="&#x443;" horiz-adv-x="1050" d="M106 243l1 506h175v-461q0 -128 137 -128h316q45 0 45 49v538h176v-828q0 -112 -69.5 -183t-190.5 -71h-553v167h504q88 0 116 47q17 31 17 120h-400q-124 0 -194 62q-80 70 -80 182zM704 -1h76v21z" />
<glyph unicode="&#x444;" horiz-adv-x="1121" d="M77 392q0 111 75 178.5t188 67.5q127 0 149 -24v169h150v-170q23 25 149 25q113 0 188 -67.5t75 -178.5q0 -120 -76 -192t-195 -72q-123 0 -141 19v-168h-150v168q-18 -19 -141 -19q-119 0 -195 72t-76 192zM233 385q0 -70 35.5 -107t102.5 -37q27 0 54 10t45.5 26.5 t18.5 14.5v179q-13 20 -46.5 36.5t-75.5 16.5q-67 0 -100.5 -34t-33.5 -105zM639 297q8 -18 43.5 -37t74.5 -19q67 0 102.5 37t35.5 107q0 71 -33.5 105t-100.5 34q-30 0 -56 -8.5t-46 -25.5t-20 -11v-182z" />
<glyph unicode="&#x445;" horiz-adv-x="903" d="M-20 -3l362 387l-339 367h206l228 -242l231 242h207l-336 -367l361 -387h-211l-250 262l-250 -262h-209z" />
<glyph unicode="&#x446;" horiz-adv-x="1149" d="M104 -4v761h174v-649h512v649h174v-649h135v-278h-174v166h-821z" />
<glyph unicode="&#x447;" horiz-adv-x="1063" d="M104 475v273h174v-241q0 -180 194 -180q145 0 320 122v299h174v-744h-174v338q-184 -123 -367 -123q-156 0 -238.5 65.5t-82.5 190.5z" />
<glyph unicode="&#x448;" horiz-adv-x="1351" d="M106 0v754h153v-643h343v643h153v-643h343v643h153v-754h-1145z" />
<glyph unicode="&#x449;" horiz-adv-x="1477" d="M107 0v755h153v-644h342v644h153v-644h341v644h153v-644h119v-276h-153v165h-1108z" />
<glyph unicode="&#x44a;" horiz-adv-x="1248" d="M41 641v110h496v-270h208q194 0 307 -68t113 -174q0 -104 -112.5 -171.5t-304.5 -67.5h-386v641h-321zM537 111h208q107 0 171.5 33t64.5 95q0 131 -236 131h-208v-259z" />
<glyph unicode="&#x44b;" horiz-adv-x="1337" d="M106 0v751h174v-270h209q193 0 306.5 -68t113.5 -174q0 -101 -110 -170t-308 -69h-385zM280 111h209q106 0 170.5 33t64.5 95q0 131 -235 131h-209v-259zM1064 0v750h174v-750h-174z" />
<glyph unicode="&#x44c;" horiz-adv-x="1009" d="M107 0v751h174v-270h209q193 0 306.5 -68t113.5 -174q0 -101 -110 -170t-308 -69h-385zM281 111h209q106 0 170.5 33t64.5 95q0 131 -235 131h-209v-259z" />
<glyph unicode="&#x44d;" horiz-adv-x="930" d="M98 0v109h425q141 0 141 83v128h-534v107h534v127q0 84 -143 84h-423v109h467q121 0 189 -38q74 -43 74 -121v-421q0 -78 -66 -122.5t-182 -44.5h-482z" />
<glyph unicode="&#x44e;" horiz-adv-x="1351" d="M101 -8v751h159v-317h155q19 161 127.5 248t285.5 87q196 0 306.5 -106t110.5 -288q0 -177 -107.5 -285.5t-309.5 -108.5q-180 0 -289 89t-126 254h-153v-324h-159zM579 367q0 -133 63.5 -208t185.5 -75t185.5 75.5t63.5 207.5q0 138 -63 210.5t-186 72.5 q-249 0 -249 -283z" />
<glyph unicode="&#x44f;" horiz-adv-x="989" d="M108 0l419 305h-185q-105 0 -168.5 43t-63.5 113v130q0 160 246 160h540v-751h-161v641h-332q-133 0 -133 -79v-86q0 -75 118 -75l235 -2q99 0 99 -63q0 -33 -20 -47l-394 -289h-200z" />
<glyph unicode="&#x451;" horiz-adv-x="1042" d="M102 205v356q0 191 281 191h309q262 0 262 -203v-94l-674 -199v-25q0 -59 45 -86q31 -16 107 -16h520v-129h-553q-143 0 -211 43q-86 51 -86 162zM278 381l496 147v11q0 86 -140 86h-194q-162 0 -162 -97v-147zM315 917q0 34 22.5 57.5t55.5 23.5t56 -23.5t23 -55.5 q0 -33 -23 -56.5t-56 -23.5q-32 0 -55 23.5t-23 54.5zM569 923q0 31 22 53t55 22q32 0 55.5 -22t23.5 -52t-23.5 -52t-55.5 -22t-54.5 21.5t-22.5 51.5z" />
<glyph unicode="&#x452;" horiz-adv-x="1130" d="M14 822v102h144v73h174v-73h248v-102h-248v-171q163 115 346 115q301 0 301 -240v-490q0 -127 -62.5 -183t-218.5 -56q-57 0 -123 21l39 90q47 -10 82 -10q109 0 109 127v471q0 89 -42 128.5t-132 39.5q-132 0 -299 -114v-499h-174v771h-144z" />
<glyph unicode="&#x453;" horiz-adv-x="754" d="M147 0v744h566v-109h-391v-635h-175zM186 804l198 200h226l-312 -200h-112z" />
<glyph unicode="&#x454;" horiz-adv-x="946" d="M102 365q0 187 130 288t346 101q140 0 276 -41l-41 -100q-113 35 -233 35q-255 0 -289 -226h344v-109h-344q14 -114 90 -173.5t201 -59.5q122 0 245 44l39 -98q-135 -53 -284 -53q-224 0 -352 104.5t-128 287.5z" />
<glyph unicode="&#x455;" horiz-adv-x="786" d="M88 0v129h479q74 0 99 29q18 22 18 80q0 77 -115 77h-217q-110 0 -182 43q-80 48 -80 125v101q0 84 92 135q56 33 172 33h512v-129h-465q-63 0 -94 -15q-43 -20 -43 -55v-31q0 -78 141 -78h230q100 0 164.5 -49t64.5 -125v-92q0 -72 -65 -127q-39 -35 -82 -43 q-35 -8 -103 -8h-526z" />
<glyph unicode="&#x456;" horiz-adv-x="494" d="M141 0v752h176v-752h-176zM149 867v131h168v-131h-168z" />
<glyph unicode="&#x457;" horiz-adv-x="494" d="M67 937q0 30 19.5 49.5t48.5 19.5q28 0 48.5 -19.5t20.5 -47.5q0 -29 -20.5 -48.5t-48.5 -19.5q-27 0 -47.5 19.5t-20.5 46.5zM160 4v750h174v-750h-174zM301 939q0 28 17.5 47.5t44.5 19.5q26 0 44.5 -19.5t18.5 -46.5q0 -26 -18.5 -46t-44.5 -20t-44 19t-18 46z" />
<glyph unicode="&#x458;" horiz-adv-x="494" d="M-70 -164h91q59 0 96.5 26.5t37.5 70.5v817h176v-839q0 -99 -71.5 -153t-202.5 -54h-127v132zM163 871v131h168v-131h-168z" />
<glyph unicode="&#x459;" horiz-adv-x="1753" d="M35 -18v115h10q90 0 123 21.5t33 101.5v537h821v-273h209q193 0 306.5 -69.5t113.5 -176.5q0 -105 -113 -174t-305 -69h-385v650h-473v-437q0 -121 -65 -173.5t-236 -52.5h-39zM1022 108h209q106 0 170.5 33.5t64.5 96.5q0 133 -235 133h-209v-263z" />
<glyph unicode="&#x45a;" horiz-adv-x="1749" d="M158 0v747h174v-268h512v268h174v-268h209q193 0 306.5 -68t113.5 -173q0 -103 -113 -170.5t-305 -67.5h-385v368h-512v-368h-174zM1018 110h209q106 0 170.5 33t64.5 95q0 130 -235 130h-209v-258z" />
<glyph unicode="&#x45b;" horiz-adv-x="1130" d="M14 806v108h144v86h174v-86h248v-108h-248v-172q163 122 346 122q301 0 301 -254v-502h-174v471q0 94 -42 135.5t-132 41.5q-132 0 -299 -120v-528h-174v806h-144z" />
<glyph unicode="&#x45c;" horiz-adv-x="975" d="M158 3v754h163v-754h-163zM287 814l198 186h226l-312 -186h-112zM326 384q0 19 48 62l359 311h195l-426 -372l437 -382h-192l-371 317q-50 42 -50 64z" />
<glyph unicode="&#x45e;" horiz-adv-x="1040" d="M110 246l1 506h175v-461q0 -128 137 -128h316q45 0 45 49v538h176v-828q0 -112 -69.5 -183t-190.5 -71h-553v167h504q88 0 116 47q17 31 17 120h-400q-124 0 -194 62q-80 70 -80 182zM280 1002h105q37 -79 150 -79q62 0 95.5 18.5t52.5 60.5h107q-35 -159 -255 -159 q-215 0 -255 159z" />
<glyph unicode="&#x45f;" horiz-adv-x="1176" d="M158 -5v752h174v-641h512v641h174v-752h-344v-164h-174v164h-342z" />
<glyph unicode="&#x490;" horiz-adv-x="1104" d="M170 0v1060h709v180h184v-297h-709v-943h-184z" />
<glyph unicode="&#x491;" horiz-adv-x="856" d="M147 0v1042h494v228h174v-381h-493v-889h-175z" />
<glyph unicode="&#x492;" horiz-adv-x="920" d="M10 614v156h160v641h709v-156h-525v-485h358v-156h-358v-614h-184v614h-160z" />
<glyph unicode="&#x493;" horiz-adv-x="754" d="M25 416v153h122v473h566v-153h-391v-320h255v-153h-255v-416h-175v416h-122z" />
<glyph unicode="&#x49a;" horiz-adv-x="1141" d="M170 0v1411h184v-573q109 0 181 59.5t150 226.5q46 100 82 157t95 95.5t148 38.5h16v-155h-10q-42 0 -82 -37.5t-106 -182.5q-82 -178 -145 -234.5t-134 -82.5l464 -567h128v-424h-184v268h-56l-520 668h-27v-668h-184z" />
<glyph unicode="&#x49b;" horiz-adv-x="975" d="M158 0v1042h174v-430q84 0 132 47.5t91 149.5q69 163 123 198t145 35h68v-149h-49q-57 0 -88.5 -33t-67.5 -117q-66 -159 -158 -213l302 -376h124v-381h-174v227h-47l-379 492h-22v-492h-174z" />
<glyph unicode="&#x4a2;" horiz-adv-x="1366" d="M170 0v1411h184v-567h658v567h184v-1255h131v-424h-184v268h-131v688h-658v-688h-184z" />
<glyph unicode="&#x4a3;" horiz-adv-x="1176" d="M158 0v1042h174v-374h512v374h174v-888h135v-381h-174v227h-135v514h-512v-514h-174z" />
<glyph unicode="&#x4ae;" horiz-adv-x="1075" d="M10 1000h227l324 -434l336 434h227l-459 -593v-407h-198v407z" />
<glyph unicode="&#x4af;" horiz-adv-x="944" d="M16 1042h179l278 -817l279 817h178l-371 -1026v-394h-174v401z" />
<glyph unicode="&#x4b0;" horiz-adv-x="1075" d="M10 1411h205l324 -647l335 647h193l-436 -846v-46h328v-156h-328v-363h-185v363h-328v156h328v46z" />
<glyph unicode="&#x4b1;" horiz-adv-x="944" d="M16 1042h179l278 -817l279 817h178l-371 -1026v-16h267v-154h-267v-224h-174v224h-266v154h266v23z" />
<glyph unicode="&#x4ba;" horiz-adv-x="1256" d="M170 0v1411h184v-661q75 76 187 133t206 57q160 0 259.5 -96.5t99.5 -259.5v-584h-185v543q0 112 -56 176.5t-150 64.5q-176 0 -361 -182v-602h-184z" />
<glyph unicode="&#x4bb;" horiz-adv-x="1130" d="M158 2v998h176v-251h393q281 0 281 -239v-506h-174v450q0 75 -31 105t-110 30h-316q-43 0 -43 -40v-547h-176z" />
<glyph unicode="&#x4d8;" horiz-adv-x="1327" d="M95 659v90h927q0 262 -107 397.5t-327 135.5q-100 0 -184.5 -19.5t-160.5 -51.5l-46 144q91 42 186 62.5t205 20.5q170 0 289.5 -57t195 -156t110 -233.5t34.5 -289.5q0 -98 -16 -190t-48 -173t-81.5 -148.5t-117 -115.5t-153 -75t-189.5 -27q-92 0 -166 26.5 t-131.5 73.5t-99 111.5t-68.5 140.5t-39.5 161t-12.5 173zM290 593q0 -56 7.5 -112t23.5 -107.5t41.5 -96t62 -77.5t84.5 -52t109 -19q99 0 173 40.5t123.5 106t74.5 148.5t26 169h-725z" />
<glyph unicode="&#x4d9;" horiz-adv-x="1042" d="M102 477v55h653q0 171 -90 278t-231 107q-153 0 -283 -59l-41 139q153 70 324 70q229 0 367.5 -149.5t138.5 -399.5q0 -241 -116 -393t-331 -152q-177 0 -284 134.5t-107 369.5zM280 397q0 -120 59.5 -197.5t147.5 -77.5q111 0 181.5 76.5t80.5 198.5h-469z" />
<glyph unicode="&#x4e8;" horiz-adv-x="1495" d="M111 705q0 330 173 531.5t464 201.5q290 0 463 -201.5t173 -531.5q0 -313 -172.5 -522.5t-463.5 -209.5q-285 0 -461 207t-176 525zM307 633q14 -213 115 -348q117 -156 326 -156q211 0 326 151q100 131 114 353h-881zM308 789h879q-17 203 -117 335q-120 158 -322 158 q-203 0 -323 -158q-100 -132 -117 -335z" />
<glyph unicode="&#x4e9;" horiz-adv-x="1161" d="M102 520q0 244 128 395.5t352 151.5q218 0 347.5 -150t129.5 -397t-129.5 -397t-347.5 -150q-221 0 -350.5 149.5t-129.5 397.5zM291 445q13 -123 73 -208q77 -110 218 -110q138 0 215 111q59 85 73 207h-579zM291 599h578q-13 124 -72 206q-76 108 -215 108 q-142 0 -219 -107q-59 -82 -72 -207z" />
<glyph unicode="&#x2000;" horiz-adv-x="768" />
<glyph unicode="&#x2001;" horiz-adv-x="1536" />
<glyph unicode="&#x2002;" horiz-adv-x="768" />
<glyph unicode="&#x2003;" horiz-adv-x="1536" />
<glyph unicode="&#x2004;" horiz-adv-x="512" />
<glyph unicode="&#x2005;" horiz-adv-x="384" />
<glyph unicode="&#x2006;" horiz-adv-x="256" />
<glyph unicode="&#x2007;" horiz-adv-x="256" />
<glyph unicode="&#x2008;" horiz-adv-x="192" />
<glyph unicode="&#x2009;" horiz-adv-x="307" />
<glyph unicode="&#x200a;" horiz-adv-x="85" />
<glyph unicode="&#x2010;" horiz-adv-x="548" d="M0 360v103h549v-103h-549z" />
<glyph unicode="&#x2011;" horiz-adv-x="548" d="M0 360v103h549v-103h-549z" />
<glyph unicode="&#x2012;" horiz-adv-x="548" d="M0 360v103h549v-103h-549z" />
<glyph unicode="&#x2013;" horiz-adv-x="1060" d="M108 369v123h844v-123h-844z" />
<glyph unicode="&#x2014;" horiz-adv-x="1462" d="M112 377v129h1245v-129h-1245z" />
<glyph unicode="&#x2018;" horiz-adv-x="368" d="M4 954q0 27 12 47l80 148h105l-68 -125q51 -47 51 -74q0 -32 -25.5 -57t-62.5 -25q-39 0 -65.5 27t-26.5 59z" />
<glyph unicode="&#x2019;" horiz-adv-x="368" d="M4 797l72 157q-56 58 -56 93q0 43 28 72.5t69 29.5q39 0 65.5 -32t26.5 -77q0 -32 -12 -59l-87 -184h-106z" />
<glyph unicode="&#x201a;" horiz-adv-x="342" d="M-6 -247l70 139q-54 49 -54 80q0 34 28 60.5t67 26.5q36 0 63 -27.5t27 -65.5q0 -27 -13 -52l-84 -161h-104z" />
<glyph unicode="&#x201c;" horiz-adv-x="589" d="M-22 842q0 28 13 51l77 164h96l-63 -139q49 -52 49 -80q0 -39 -24.5 -66t-61.5 -27q-35 0 -60.5 30t-25.5 67zM191 842q0 22 12 51l78 164h98l-65 -139q49 -54 49 -80q0 -39 -24.5 -66t-61.5 -27q-35 0 -60.5 30t-25.5 67z" />
<glyph unicode="&#x201d;" horiz-adv-x="602" d="M-10 756l68 139q-52 45 -52 80q0 39 26 65.5t62 26.5q39 0 64 -28.5t25 -65.5q0 -31 -13 -55l-80 -162h-100zM209 756l68 139q-51 49 -51 80q0 39 25.5 65.5t64.5 26.5q36 0 62 -28.5t26 -65.5q0 -27 -15 -55l-80 -162h-100z" />
<glyph unicode="&#x201e;" horiz-adv-x="589" d="M-8 -217l63 140q-47 47 -47 77q0 37 23.5 63.5t60.5 26.5q35 0 58.5 -27.5t23.5 -66.5q0 -26 -10 -51l-76 -162h-96zM199 -217l65 140q-49 51 -49 77q0 37 24.5 63.5t59.5 26.5t59.5 -28.5t24.5 -65.5q0 -24 -12 -51l-76 -162h-96z" />
<glyph unicode="&#x2026;" horiz-adv-x="1185" d="M88 51q0 33 26.5 56.5t63.5 23.5q39 0 65.5 -22.5t26.5 -55.5t-26.5 -55t-63.5 -22q-39 0 -65.5 22t-26.5 53zM477 57q0 33 25.5 55.5t64.5 22.5t65.5 -22.5t26.5 -53.5q0 -30 -26.5 -52.5t-65.5 -22.5q-37 0 -63.5 22.5t-26.5 50.5zM862 61q0 33 24.5 55.5t59.5 22.5 q37 0 61.5 -22.5t24.5 -53.5q0 -30 -24.5 -52.5t-61.5 -22.5q-35 0 -59.5 22.5t-24.5 50.5z" />
<glyph unicode="&#x202f;" horiz-adv-x="307" />
<glyph unicode="&#x2039;" horiz-adv-x="587" d="M59 348q0 25 45 60l260 204h160l-334 -260l336 -262h-166l-254 199q-47 39 -47 59z" />
<glyph unicode="&#x203a;" horiz-adv-x="587" d="M59 612h168l254 -200q45 -37 45 -60q0 -22 -45 -57l-260 -205h-160l334 260z" />
<glyph unicode="&#x205f;" horiz-adv-x="384" />
<glyph unicode="&#x20ac;" horiz-adv-x="1093" d="M-12 422l53 94h99v76h-152l53 94h99v139q0 129 84 187q71 49 233 49h573v-154h-524q-86 0 -127 -27.5t-41 -88.5v-105h494l-51 -94h-443v-76h402l-54 -94h-348v-133q0 -76 40 -105.5t138 -29.5h512v-154h-585q-146 0 -224.5 62.5t-78.5 175.5v184h-152z" />
<glyph unicode="&#x2122;" horiz-adv-x="1542" d="M26 987v74h539v-74h-197v-342h-143v342h-199zM604 645v359q0 61 112 61q82 0 113 -43l186 -262l191 264q28 41 110 41q111 0 111 -61v-359h-139v277l-177 -238q-32 -45 -94 -45q-61 0 -92 43l-180 240v-277h-141z" />
<glyph unicode="&#xe000;" horiz-adv-x="755" d="M0 0v755h755v-755h-755z" />
</font>
</defs>
</svg>
